<svg id="Logo_-_Facebook" data-name="Logo - Facebook" xmlns="http://www.w3.org/2000/svg" width="20" height="20" viewBox="0 0 20 20">
  <g id="Facebook_-_PB" data-name="Facebook - PB" transform="translate(-628.043 -20)">
    <path id="Path_182" data-name="Path 182" d="M645.313,20h-14.55a2.667,2.667,0,0,0-2.72,2.73V37.27a2.671,2.671,0,0,0,2.72,2.73h14.55a2.674,2.674,0,0,0,2.73-2.73V22.73a2.674,2.674,0,0,0-2.73-2.73m-3.87,9.84h-2.18v7.92h-3.28V29.84h-1.64V27.11h1.64V25.47c0-2.23.92-3.55,3.55-3.55h2.19v2.73h-1.37c-1.02,0-1.09.38-1.09,1.1v1.36h2.47Z"/>
    <path id="Path_183" data-name="Path 183" d="M641.733,27.11l-.29,2.73h-2.18v7.92h-3.28V29.84h-1.64V27.11h1.64V25.47c0-2.23.92-3.55,3.55-3.55h2.19v2.73h-1.37c-1.02,0-1.09.38-1.09,1.1v1.36Z" fill="#fff"/>
  </g>
  <g id="Facebook_-_Color" data-name="Facebook - Color" transform="translate(0 -0.022)">
    <path id="Path_142" data-name="Path 142" d="M17.27.022H2.72A2.667,2.667,0,0,0,0,2.752V17.3a2.664,2.664,0,0,0,2.72,2.72H17.27A2.671,2.671,0,0,0,20,17.3V2.752A2.674,2.674,0,0,0,17.27.022M13.4,9.872H11.22v7.92H7.94V9.872H6.3V7.132H7.94V5.492c0-2.22.92-3.55,3.55-3.55h2.19v2.73H12.31c-1.02,0-1.09.39-1.09,1.1v1.36h2.47Z" fill="#1877f2"/>
    <path id="Path_143" data-name="Path 143" d="M13.69,7.132l-.29,2.74H11.22v7.92H7.94V9.872H6.3V7.132H7.94V5.492c0-2.22.92-3.55,3.55-3.55h2.19v2.73H12.31c-1.02,0-1.09.39-1.09,1.1v1.36Z" fill="#fff"/>
  </g>
</svg>
