<svg xmlns="http://www.w3.org/2000/svg" width="20" height="20" viewBox="0 0 20 20">
  <g id="Logo_-_Flickr" data-name="Logo - Flickr" transform="translate(0 0)">
    <g id="Flickr_-_PB" data-name="Flickr - PB" transform="translate(-718.033 -20)">
      <path id="Path_193" data-name="Path 193" d="M735.3,20h-14.54a2.674,2.674,0,0,0-2.73,2.73V37.27a2.674,2.674,0,0,0,2.73,2.73H735.3a2.674,2.674,0,0,0,2.73-2.73V22.73A2.674,2.674,0,0,0,735.3,20m-7.53,7.48v2h-1.96v6.24h-2.74V29.48h-1.62v-2h1.66v-.5c0-2.45,1.12-3.31,3.32-3.31a7.326,7.326,0,0,1,1.4.16l-.17,1.96a2.351,2.351,0,0,0-.87-.12c-.7,0-.98.5-.98,1.31v.5Zm6.72,2.28a2.914,2.914,0,0,0-.93-.09c-1.29,0-2,.96-2,2.57v3.48h-2.75V27.48h2.5V29h.03a2.47,2.47,0,0,1,2.35-1.71,5.875,5.875,0,0,1,.94.1Z"/>
      <path id="Path_194" data-name="Path 194" d="M734.633,27.39l-.14,2.37a2.914,2.914,0,0,0-.93-.09c-1.29,0-2,.96-2,2.57v3.48h-2.75V27.48h2.5V29h.03a2.47,2.47,0,0,1,2.35-1.71,5.875,5.875,0,0,1,.94.1" fill="#fff"/>
      <path id="Path_195" data-name="Path 195" d="M725.813,27.48h1.96v2h-1.96v6.24h-2.74V29.48h-1.62v-2h1.66v-.5c0-2.45,1.12-3.31,3.32-3.31a7.326,7.326,0,0,1,1.4.16l-.17,1.96a2.351,2.351,0,0,0-.87-.12c-.7,0-.98.5-.98,1.31Z" fill="#fff"/>
    </g>
    <g id="Flickr_-_Color" data-name="Flickr - Color" transform="translate(-1084.99 65.978)">
      <path id="Path_152" data-name="Path 152" d="M107.26.022H92.72a2.674,2.674,0,0,0-2.73,2.73V17.3a2.667,2.667,0,0,0,2.73,2.72h14.54a2.671,2.671,0,0,0,2.73-2.72V2.752a2.674,2.674,0,0,0-2.73-2.73m-7.53,7.49V9.5H97.77v6.25H95.03V9.5H93.41V7.512h1.66V7c0-2.45,1.12-3.3,3.32-3.3a6.605,6.605,0,0,1,1.4.16l-.17,1.96a2.36,2.36,0,0,0-.87-.13c-.7,0-.98.51-.98,1.31v.51Zm6.72,2.27a3.231,3.231,0,0,0-.93-.09c-1.29,0-2,.96-2,2.58v3.48h-2.75V7.512h2.5v1.51h.03a2.449,2.449,0,0,1,2.35-1.7,4.91,4.91,0,0,1,.94.09Z" transform="translate(995 -66)" fill="#0063e0"/>
      <path id="Path_153" data-name="Path 153" d="M106.59,7.412l-.14,2.37a3.231,3.231,0,0,0-.93-.09c-1.29,0-2,.96-2,2.58v3.48h-2.75V7.512h2.5v1.51h.03a2.449,2.449,0,0,1,2.35-1.7,4.91,4.91,0,0,1,.94.09" transform="translate(995 -66)" fill="#fff"/>
      <path id="Path_154" data-name="Path 154" d="M97.77,7.512h1.96V9.5H97.77v6.25H95.03V9.5H93.41V7.512h1.66V7c0-2.45,1.12-3.3,3.32-3.3a6.605,6.605,0,0,1,1.4.16l-.17,1.96a2.36,2.36,0,0,0-.87-.13c-.7,0-.98.51-.98,1.31Z" transform="translate(995 -66)" fill="#fff"/>
    </g>
  </g>
</svg>
