<svg xmlns="http://www.w3.org/2000/svg" width="100" height="100" viewBox="0 0 100 100">
  <g id="Group_12236" data-name="Group 12236" transform="translate(15696 22572)">
    <path id="Path" d="M50,0A49.692,49.692,0,0,0,0,50a49.692,49.692,0,0,0,50,50,49.692,49.692,0,0,0,50-50A49.692,49.692,0,0,0,50,0Z" transform="translate(-15696 -22572)" fill="#fff"/>
    <path id="icon" d="M841-1722a49.692,49.692,0,0,0-50,50,49.692,49.692,0,0,0,50,50,49.692,49.692,0,0,0,50-50A49.692,49.692,0,0,0,841-1722Zm-7.143,71.428-19.286-19.286,6.429-5.714,12.857,12.858,28.572-27.857,6.429,5.714Z" transform="translate(-16487 -20850)" fill="#24a148" fill-rule="evenodd"/>
  </g>
</svg>
