<?xml version="1.0" encoding="UTF-8"?><svg id="Layer_1" xmlns="http://www.w3.org/2000/svg" viewBox="0 0 20 20"><defs><style>.cls-1{fill:#fff;}</style></defs><path id="Path_549" d="M17.27,0H2.73S0,0,0,2.73v14.54s0,2.73,2.73,2.73h14.54s2.73,0,2.73-2.73V2.73s0-2.73-2.73-2.73Z"/><g><path class="cls-1" d="M16.71,7.21c-.01-.56-.11-1.11-.31-1.63-.35-.91-1.07-1.63-1.97-1.98-.53-.2-1.08-.3-1.64-.31-.72-.04-.95-.04-2.79-.04s-2.06,0-2.78,.04c-.56,0-1.11,.11-1.64,.31-.45,.17-.86,.43-1.19,.78-.35,.34-.61,.75-.78,1.2-.2,.52-.31,1.07-.32,1.63-.03,.72-.04,.96-.04,2.79s.01,2.06,.04,2.78c.01,.56,.12,1.12,.31,1.64,.17,.45,.44,.86,.78,1.2,.34,.35,.75,.61,1.2,.78,.53,.2,1.08,.3,1.64,.31,.72,.04,.95,.04,2.78,.04s2.07,0,2.79-.04c.56-.01,1.11-.12,1.64-.31,.9-.35,1.62-1.07,1.97-1.98,.2-.52,.3-1.07,.31-1.63,.04-.72,.05-.96,.05-2.79s-.01-2.07-.05-2.79Zm-1.21,5.52c0,.43-.08,.85-.23,1.25-.23,.59-.69,1.06-1.28,1.29-.4,.14-.83,.22-1.26,.23-.71,.03-.92,.04-2.72,.04s-2.02-.01-2.73-.04c-.43-.01-.86-.09-1.26-.23-.29-.11-.56-.29-.77-.51-.23-.22-.4-.48-.51-.78-.15-.4-.23-.82-.23-1.25-.03-.71-.04-.93-.04-2.73s.01-2.02,.04-2.73c0-.43,.08-.85,.23-1.25,.11-.29,.28-.56,.51-.78,.22-.22,.48-.39,.78-.5,.4-.15,.82-.23,1.25-.23,.71-.04,.93-.04,2.73-.04s2.01,0,2.72,.03c.43,.01,.86,.09,1.26,.23,.59,.23,1.05,.7,1.28,1.29,.15,.4,.23,.82,.23,1.25,.03,.71,.04,.93,.04,2.73s0,2.02-.04,2.73Z"/><circle class="cls-1" cx="13.61" cy="6.4" r=".81"/><path class="cls-1" d="M12.46,7.55c-.63-.63-1.5-1.02-2.45-1.02-1.92,0-3.47,1.56-3.47,3.47s1.55,3.47,3.47,3.47,3.46-1.56,3.46-3.47c0-.96-.39-1.82-1.01-2.45Zm-2.45,4.7h-.01c-1.24,0-2.25-1.01-2.25-2.25s1.01-2.25,2.25-2.25,2.25,1.01,2.25,2.25c.01,1.24-1,2.25-2.24,2.25Z"/></g></svg>