<?xml version="1.0" encoding="UTF-8"?><svg id="Layer_1" xmlns="http://www.w3.org/2000/svg" viewBox="0 0 20 20"><defs><style>.cls-1{fill:#fff;}</style></defs><path d="M10.06,8.3c-.92,0-1.68,.74-1.68,1.66-.01,.92,.73,1.68,1.65,1.69h.02c.92,0,1.66-.74,1.67-1.66,.01-.92-.73-1.68-1.66-1.69Z"/><path d="M10.06,8.3c-.92,0-1.68,.74-1.68,1.66-.01,.92,.73,1.68,1.65,1.69h.02c.92,0,1.66-.74,1.67-1.66,.01-.92-.73-1.68-1.66-1.69Z"/><g><path d="M10.09,5.45c-2.49-.03-4.53,1.97-4.55,4.46-.02,2.49,1.98,4.53,4.47,4.55h.06c2.46,0,4.46-1.99,4.49-4.46,.02-2.49-1.98-4.53-4.47-4.55Z"/><path d="M10.02,13.28c-1.83-.01-3.29-1.51-3.28-3.33,.02-1.83,1.51-3.29,3.34-3.27,1.81,.01,3.27,1.49,3.27,3.29v.04c-.02,1.82-1.51,3.29-3.33,3.27Z"/></g><path d="M10.06,8.3c-.92,0-1.68,.74-1.68,1.66-.01,.92,.73,1.68,1.65,1.69h.02c.92,0,1.66-.74,1.67-1.66,.01-.92-.73-1.68-1.66-1.69Z"/><g><path d="M10.09,5.45c-2.49-.03-4.53,1.97-4.55,4.46-.02,2.49,1.98,4.53,4.47,4.55h.06c2.46,0,4.46-1.99,4.49-4.46,.02-2.49-1.98-4.53-4.47-4.55Z"/><path d="M10.02,13.28c-1.83-.01-3.29-1.51-3.28-3.33,.02-1.83,1.51-3.29,3.34-3.27,1.81,.01,3.27,1.49,3.27,3.29v.04c-.02,1.82-1.51,3.29-3.33,3.27Z"/></g><path d="M10.06,8.3c-.92,0-1.68,.74-1.68,1.66-.01,.92,.73,1.68,1.65,1.69h.02c.92,0,1.66-.74,1.67-1.66,.01-.92-.73-1.68-1.66-1.69Z"/><g><path d="M17.27,0H2.73S0,0,0,2.73v14.54s0,2.73,2.73,2.73h14.54s2.73,0,2.73-2.73V2.73s0-2.73-2.73-2.73Z"/><path d="M9.94,16.43c-3.54-.04-6.4-2.89-6.43-6.43V4.05c0-.3,.24-.54,.54-.54h5.95c3.59,0,6.5,2.9,6.5,6.49-.04,3.59-2.98,6.47-6.56,6.43Z"/></g><g><path d="M10.09,5.45c-2.49-.03-4.53,1.97-4.55,4.46-.02,2.49,1.98,4.53,4.47,4.55h.06c2.46,0,4.46-1.99,4.49-4.46,.02-2.49-1.98-4.53-4.47-4.55Z"/><path d="M13.35,10.01c-.02,1.82-1.51,3.29-3.33,3.27-1.83-.01-3.29-1.51-3.28-3.33,.02-1.83,1.51-3.29,3.34-3.27,1.81,.01,3.27,1.49,3.27,3.29v.04Z"/></g><path d="M10.06,8.3c-.92,0-1.68,.74-1.68,1.66-.01,.92,.73,1.68,1.65,1.69h.02c.92,0,1.66-.74,1.67-1.66,.01-.92-.73-1.68-1.66-1.69Z"/><path d="M10.06,8.3c-.92,0-1.68,.74-1.68,1.66-.01,.92,.73,1.68,1.65,1.69h.02c.92,0,1.66-.74,1.67-1.66,.01-.92-.73-1.68-1.66-1.69Z"/><path d="M10.06,8.3c-.92,0-1.68,.74-1.68,1.66-.01,.92,.73,1.68,1.65,1.69h.02c.92,0,1.66-.74,1.67-1.66,.01-.92-.73-1.68-1.66-1.69Z"/><g><path d="M10.09,5.45c-2.49-.03-4.53,1.97-4.55,4.46-.02,2.49,1.98,4.53,4.47,4.55h.06c2.46,0,4.46-1.99,4.49-4.46,.02-2.49-1.98-4.53-4.47-4.55Z"/><path d="M10.02,13.28c-1.83-.01-3.29-1.51-3.28-3.33,.02-1.83,1.51-3.29,3.34-3.27,1.81,.01,3.27,1.49,3.27,3.29v.04c-.02,1.82-1.51,3.29-3.33,3.27Z"/></g><path d="M10.06,8.3c-.92,0-1.68,.74-1.68,1.66-.01,.92,.73,1.68,1.65,1.69h.02c.92,0,1.66-.74,1.67-1.66,.01-.92-.73-1.68-1.66-1.69Z"/><path d="M10.06,8.3c-.92,0-1.68,.74-1.68,1.66-.01,.92,.73,1.68,1.65,1.69h.02c.92,0,1.66-.74,1.67-1.66,.01-.92-.73-1.68-1.66-1.69Z"/><path d="M10.06,8.3c-.92,0-1.68,.74-1.68,1.66-.01,.92,.73,1.68,1.65,1.69h.02c.92,0,1.66-.74,1.67-1.66,.01-.92-.73-1.68-1.66-1.69Z"/><g><path d="M10.09,5.45c-2.49-.03-4.53,1.97-4.55,4.46-.02,2.49,1.98,4.53,4.47,4.55h.06c2.46,0,4.46-1.99,4.49-4.46,.02-2.49-1.98-4.53-4.47-4.55Z"/><path d="M10.02,13.28c-1.83-.01-3.29-1.51-3.28-3.33,.02-1.83,1.51-3.29,3.34-3.27,1.81,.01,3.27,1.49,3.27,3.29v.04c-.02,1.82-1.51,3.29-3.33,3.27Z"/></g><path d="M10.06,8.3c-.92,0-1.68,.74-1.68,1.66-.01,.92,.73,1.68,1.65,1.69h.02c.92,0,1.66-.74,1.67-1.66,.01-.92-.73-1.68-1.66-1.69Z"/><path d="M10.06,8.3c-.92,0-1.68,.74-1.68,1.66-.01,.92,.73,1.68,1.65,1.69h.02c.92,0,1.66-.74,1.67-1.66,.01-.92-.73-1.68-1.66-1.69Z"/><path d="M10.06,8.3c-.92,0-1.68,.74-1.68,1.66-.01,.92,.73,1.68,1.65,1.69h.02c.92,0,1.66-.74,1.67-1.66,.01-.92-.73-1.68-1.66-1.69Z"/><path class="cls-1" d="M10,3.51H4.05c-.3,0-.54,.24-.54,.54v5.95c.03,3.54,2.89,6.39,6.43,6.43,3.58,.04,6.52-2.84,6.56-6.43,0-3.59-2.91-6.49-6.5-6.49Zm.07,10.95h-.06c-2.49-.02-4.49-2.06-4.47-4.55,.02-2.49,2.06-4.49,4.55-4.46,2.49,.02,4.49,2.06,4.47,4.55-.03,2.47-2.03,4.46-4.49,4.46Z"/><path class="cls-1" d="M10.08,6.68c-1.83-.02-3.32,1.44-3.34,3.27-.01,1.82,1.45,3.32,3.28,3.33,1.82,.02,3.31-1.45,3.33-3.27v-.04c0-1.8-1.46-3.28-3.27-3.29Zm-.03,4.97h-.02c-.92-.01-1.66-.77-1.65-1.69,0-.92,.76-1.66,1.68-1.66,.93,.01,1.67,.77,1.66,1.69,0,.92-.75,1.66-1.67,1.66Z"/></svg>