<svg xmlns="http://www.w3.org/2000/svg" width="20" height="20" viewBox="0 0 20 20">
  <g id="Logo_-_Linkedin" data-name="Logo - Linkedin" transform="translate(0 0)">
    <g id="Linkedin_-_PB" data-name="Linkedin - PB" transform="translate(-898.033 -20)">
      <path id="Path_196" data-name="Path 196" d="M915.3,20h-14.54a2.674,2.674,0,0,0-2.73,2.73V37.27a2.674,2.674,0,0,0,2.73,2.73H915.3a2.674,2.674,0,0,0,2.73-2.73V22.73A2.674,2.674,0,0,0,915.3,20m-10.69,16.19h-2.57V27.92h2.57Zm.2-10.88a1.485,1.485,0,1,1,0-.01Zm9.42,10.87h-2.57V32.17c0-.96-.02-2.19-1.33-2.19-1.34,0-1.54,1.04-1.54,2.12v4.08h-2.57V27.92h2.46v1.13h.04a2.688,2.688,0,0,1,2.43-1.33c2.6,0,3.08,1.71,3.08,3.93Z"/>
      <path id="Path_197" data-name="Path 197" d="M914.233,31.65v4.53h-2.57V32.17c0-.96-.02-2.19-1.33-2.19-1.34,0-1.54,1.04-1.54,2.12v4.08h-2.57V27.92h2.46v1.13h.04a2.688,2.688,0,0,1,2.43-1.33c2.6,0,3.08,1.71,3.08,3.93" fill="#fff"/>
      <path id="Path_198" data-name="Path 198" d="M904.813,25.3v.01a1.485,1.485,0,1,1,0-.01" fill="#fff"/>
      <rect id="Rectangle_52" data-name="Rectangle 52" width="2.57" height="8.27" transform="translate(902.043 27.92)" fill="#fff"/>
    </g>
    <g id="Linkedin_-_Color" data-name="Linkedin - Color" transform="translate(-1264.99 65.978)" opacity="0">
      <path id="Path_155" data-name="Path 155" d="M287.26.022H272.72a2.674,2.674,0,0,0-2.73,2.73V17.3a2.667,2.667,0,0,0,2.73,2.72h14.54a2.671,2.671,0,0,0,2.73-2.72V2.752a2.674,2.674,0,0,0-2.73-2.73m-10.69,16.19H274V7.952h2.57Zm-1.29-9.39a1.49,1.49,0,1,1,1.49-1.49,1.485,1.485,0,0,1-1.49,1.49m10.91,9.39h-2.57v-4.02c0-.96-.02-2.19-1.33-2.19-1.34,0-1.54,1.04-1.54,2.12v4.09h-2.57V7.952h2.46v1.13h.04a2.717,2.717,0,0,1,2.43-1.34c2.6,0,3.08,1.71,3.08,3.94Z" transform="translate(995 -66)" fill="#005a87"/>
      <path id="Path_156" data-name="Path 156" d="M276.77,5.332a1.485,1.485,0,1,1-1.49-1.49,1.487,1.487,0,0,1,1.49,1.49" transform="translate(995 -66)" fill="#fff"/>
      <rect id="Rectangle_30" data-name="Rectangle 30" width="2.57" height="8.26" transform="translate(1269 -58.049)" fill="#fff"/>
      <path id="Path_157" data-name="Path 157" d="M286.19,11.682v4.53h-2.57v-4.02c0-.96-.02-2.19-1.33-2.19-1.34,0-1.54,1.04-1.54,2.12v4.09h-2.57V7.952h2.46v1.13h.04a2.717,2.717,0,0,1,2.43-1.34c2.6,0,3.08,1.71,3.08,3.94" transform="translate(995 -66)" fill="#fff"/>
    </g>
  </g>
</svg>
