<?xml version="1.0" encoding="UTF-8"?><svg id="Layer_1" xmlns="http://www.w3.org/2000/svg" viewBox="0 0 20 20"><defs><style>.cls-1{fill:#fff;}</style></defs><path id="Path_555" d="M17.27,0H2.73S0,0,0,2.73v14.54s0,2.73,2.73,2.73h14.54s2.73,0,2.73-2.73V2.73s0-2.73-2.73-2.73Z"/><g><path class="cls-1" d="M10.3,11.8l-.1,1.77c0,.13-.11,.24-.24,.24s-.24-.11-.24-.24l-.1-1.77,.1-4.88c0-.13,.11-.24,.24-.24s.24,.11,.24,.24l.1,4.88Z"/><path class="cls-1" d="M9.54,11.8l-.1,1.8c0,.12-.11,.22-.23,.21s-.21-.1-.21-.21l-.09-1.8,.09-4.48c0-.12,.1-.22,.22-.22s.22,.1,.22,.22l.1,4.48Z"/><path class="cls-1" d="M8.79,11.8l-.11,1.81c0,.12-.09,.21-.2,.21-.12,0-.21-.09-.21-.21l-.1-1.81,.1-3.76c0-.12,.09-.21,.21-.21,.11,0,.2,.09,.2,.21l.11,3.76Z"/><path class="cls-1" d="M8.05,11.8l-.12,1.82c0,.11-.09,.19-.19,.19-.11,0-.19-.08-.19-.19l-.11-1.82,.1-3.9c.01-.11,.1-.19,.21-.19,.1,.01,.18,.09,.18,.19l.12,3.9Z"/><path class="cls-1" d="M7.31,11.8l-.12,1.84c-.01,.1-.1,.17-.19,.17-.09-.01-.17-.08-.17-.17l-.11-1.84,.11-4.01c0-.09,.08-.17,.18-.17s.18,.08,.18,.17l.12,4.01Z"/><path class="cls-1" d="M6.58,11.8l-.14,1.85c0,.09-.07,.16-.16,.16s-.16-.07-.16-.16l-.12-1.85,.12-3.88c0-.09,.07-.16,.16-.16s.16,.07,.16,.16l.14,3.88Z"/><path class="cls-1" d="M5.86,11.8l-.15,1.87c0,.08-.08,.14-.16,.14-.07-.01-.13-.07-.14-.14l-.13-1.87,.13-3.57c0-.09,.07-.15,.15-.15s.15,.06,.15,.15l.15,3.57Z"/><path class="cls-1" d="M5.14,11.8l-.16,1.88c0,.07-.06,.13-.13,.13-.08,0-.14-.06-.14-.13l-.13-1.88,.13-2.91c0-.08,.06-.13,.14-.13,.07,0,.13,.06,.13,.13l.16,2.91Z"/><path class="cls-1" d="M4.42,11.8l-.16,1.88c-.01,.07-.06,.11-.13,.11-.06,0-.11-.05-.11-.11l-.15-1.88,.15-1.79c.01-.06,.06-.11,.13-.11,.06,.01,.1,.05,.11,.11l.16,1.79Z"/><path class="cls-1" d="M3.71,11.8l-.17,1.87c0,.05-.05,.1-.11,.1-.05,0-.1-.05-.1-.1l-.15-1.87,.15-1.93c0-.06,.05-.1,.11-.1,.05,0,.1,.04,.1,.1l.17,1.93Z"/><path class="cls-1" d="M3.01,11.8l-.18,1.81c-.01,.05-.05,.08-.1,.08-.04-.01-.08-.04-.08-.08l-.17-1.81,.17-1.88s.05-.08,.09-.08c.05,0,.08,.04,.09,.08l.18,1.88Z"/><path class="cls-1" d="M2.32,11.8l-.2,1.55s-.04,.07-.08,.06c-.04,0-.06-.03-.07-.06l-.17-1.55,.17-1.58s.04-.07,.08-.07c.03,0,.07,.03,.07,.07l.2,1.58Z"/><path class="cls-1" d="M1.62,11.8l-.16,.96s-.03,.07-.07,.06c-.04,0-.06-.03-.07-.06l-.13-.96,.13-.98s.04-.07,.08-.06c.03,0,.06,.03,.06,.06l.16,.98Z"/><path class="cls-1" d="M17.48,13.66c-.26,.11-.55,.17-.84,.17h-6c-.14-.02-.24-.13-.24-.26V6.69c0-.13,.05-.19,.21-.26,.44-.17,.91-.25,1.39-.25,1.98,0,3.63,1.51,3.8,3.48,1.11-.46,2.38,.06,2.84,1.16,.46,1.1-.06,2.37-1.16,2.84Z"/></g></svg>