<svg xmlns="http://www.w3.org/2000/svg" width="20" height="20" viewBox="0 0 20 20">
  <g id="Logo_-_Tiktok" data-name="Logo - Tiktok" transform="translate(0 0)">
    <g id="Tiktok_-_PB" data-name="Tiktok - PB" transform="translate(-808.033 -20)">
      <path id="Path_199" data-name="Path 199" d="M825.3,20h-14.54a2.674,2.674,0,0,0-2.73,2.73V37.27a2.674,2.674,0,0,0,2.73,2.73H825.3a2.674,2.674,0,0,0,2.73-2.73V22.73A2.674,2.674,0,0,0,825.3,20m-1.03,8.72a7.53,7.53,0,0,1-1.5-.21,5.61,5.61,0,0,1-1.48-.6l-.43-.28v5.05a5.2,5.2,0,0,1-.3,1.56,4.782,4.782,0,0,1-.83,1.37,4.607,4.607,0,0,1-1.52,1.14,4.686,4.686,0,0,1-1.88.42,4.746,4.746,0,0,1-2.53-.76V36.4a4.855,4.855,0,0,1-1.07-1,5.023,5.023,0,0,1-.68-1.22,4.817,4.817,0,0,1-.26-1.56v-.08a4.556,4.556,0,0,1,.54-2.07,4.955,4.955,0,0,1,1.07-1.3,4.543,4.543,0,0,1,1.26-.74,3.8,3.8,0,0,1,.89-.26,4.319,4.319,0,0,1,1.39-.02v2.49a2.076,2.076,0,0,0-1.84,3.67c.09.06.17.11.26.16a2.057,2.057,0,0,0,2.79-.87,1.6,1.6,0,0,0,.12-.27,2.716,2.716,0,0,0,.11-.98V22.84h2.48a2.021,2.021,0,0,0,.03.6,3.447,3.447,0,0,0,.82,1.68,3.875,3.875,0,0,0,.73.61,2.605,2.605,0,0,0,.28.17,3.222,3.222,0,0,0,1.55.37Z"/>
      <path id="Path_200" data-name="Path 200" d="M824.273,26.27v2.45a7.53,7.53,0,0,1-1.5-.21,5.61,5.61,0,0,1-1.48-.6l-.43-.28v5.05a5.2,5.2,0,0,1-.3,1.56,4.782,4.782,0,0,1-.83,1.37,4.607,4.607,0,0,1-1.52,1.14,4.686,4.686,0,0,1-1.88.42,4.746,4.746,0,0,1-2.53-.76V36.4a4.855,4.855,0,0,1-1.07-1,5.023,5.023,0,0,1-.68-1.22,4.817,4.817,0,0,1-.26-1.56v-.08a4.556,4.556,0,0,1,.54-2.07,4.955,4.955,0,0,1,1.07-1.3,4.543,4.543,0,0,1,1.26-.74,3.8,3.8,0,0,1,.89-.26,4.319,4.319,0,0,1,1.39-.02v2.49a2.076,2.076,0,0,0-1.84,3.67c.09.06.17.11.26.16a2.057,2.057,0,0,0,2.79-.87,1.6,1.6,0,0,0,.12-.27,2.716,2.716,0,0,0,.11-.98V22.84h2.48a2.021,2.021,0,0,0,.03.6,3.447,3.447,0,0,0,.82,1.68,3.875,3.875,0,0,0,.73.61,2.605,2.605,0,0,0,.28.17,3.222,3.222,0,0,0,1.55.37" fill="#fff"/>
    </g>
    <g id="Tiktok_-_Color" data-name="Tiktok - Color" transform="translate(-1174.992 65.974)" opacity="0">
      <path id="Path_174" data-name="Path 174" d="M196.238,8.744a8.485,8.485,0,0,1-1.513-.206,5.733,5.733,0,0,1-1.477-.606l-.43-.279V12.7a5.061,5.061,0,0,1-.3,1.569,4.762,4.762,0,0,1-.829,1.37,4.708,4.708,0,0,1-1.523,1.138,4.506,4.506,0,0,1-1.876.413,4.627,4.627,0,0,1-2.526-.757l-.006-.005a5.038,5.038,0,0,1-1.072-1,4.937,4.937,0,0,1-.672-1.217V14.2a4.907,4.907,0,0,1-.267-1.634,4.484,4.484,0,0,1,.546-2.066,4.84,4.84,0,0,1,1.061-1.3,4.449,4.449,0,0,1,1.262-.747,4.31,4.31,0,0,1,2.28-.281v2.491a2.077,2.077,0,0,0-1.833,3.676,2.813,2.813,0,0,0,.253.151,2.065,2.065,0,0,0,2.793-.862,1.991,1.991,0,0,0,.121-.276,2.813,2.813,0,0,0,.113-.978V2.861h2.473a2.322,2.322,0,0,0,.036.6,3.4,3.4,0,0,0,.82,1.685,4.005,4.005,0,0,0,.724.613,2.957,2.957,0,0,0,.283.163,3.214,3.214,0,0,0,1.555.376V8.742Zm3.754,8.555V2.754A2.672,2.672,0,0,0,197.264.026H182.72a2.672,2.672,0,0,0-2.728,2.728V17.3a2.671,2.671,0,0,0,2.727,2.727h14.545a2.671,2.671,0,0,0,2.727-2.727" transform="translate(995 -66)"/>
      <path id="Path_175" data-name="Path 175" d="M188.013,7.936a4.43,4.43,0,0,0-.762.066,4.358,4.358,0,0,0-.889.26,4.444,4.444,0,0,0-1.261.747,4.822,4.822,0,0,0-1.061,1.3,4.469,4.469,0,0,0-.546,2.066,4.931,4.931,0,0,0,.266,1.634v.006a4.941,4.941,0,0,0,.673,1.217,5.014,5.014,0,0,0,1.072,1l0,.005.09.057a5.022,5.022,0,0,1-.659-.685,4.93,4.93,0,0,1-.673-1.218v-.005A4.909,4.909,0,0,1,184,12.757a4.476,4.476,0,0,1,.546-2.067,4.822,4.822,0,0,1,1.061-1.3,4.427,4.427,0,0,1,1.261-.746,4.236,4.236,0,0,1,.889-.26,4.334,4.334,0,0,1,.762-.067l.121,0V7.981a4.4,4.4,0,0,0-.629-.045m6.19-2.33a4.032,4.032,0,0,0,.448.344,2.926,2.926,0,0,0,.283.163,3.217,3.217,0,0,0,1.046.343V6.107h-.044a3.218,3.218,0,0,1-1.51-.377c-.076-.038-.15-.08-.223-.125m-1.64-2.936H190.09v9.513a2.862,2.862,0,0,1-.113.978,2.119,2.119,0,0,1-.121.276,2.065,2.065,0,0,1-2.793.862l-.047-.028a2.092,2.092,0,0,0,.3.259l.253.151a2.065,2.065,0,0,0,2.793-.862,2.13,2.13,0,0,0,.121-.277,2.862,2.862,0,0,0,.113-.978V3.052h1.969a2.319,2.319,0,0,1,0-.382" transform="translate(995 -66)" fill="aqua"/>
      <path id="Path_176" data-name="Path 176" d="M188.642,8.319v2.153a2.077,2.077,0,0,0-1.832,3.676l.206.124a2.077,2.077,0,0,1,2.134-3.418V8.363a4.316,4.316,0,0,0-.508-.044m7.338-1.863V8.551l0,0a8.471,8.471,0,0,1-1.513-.205,5.8,5.8,0,0,1-1.477-.606l-.43-.28V12.51a5.09,5.09,0,0,1-.3,1.568,4.576,4.576,0,0,1-2.353,2.508,4.514,4.514,0,0,1-1.875.414,4.631,4.631,0,0,1-2.437-.7,5.111,5.111,0,0,0,.413.32l.005.005a4.629,4.629,0,0,0,2.526.757,4.5,4.5,0,0,0,1.876-.413,4.712,4.712,0,0,0,1.524-1.138,4.785,4.785,0,0,0,.829-1.37,5.121,5.121,0,0,0,.3-1.569V7.844l.43.279a5.733,5.733,0,0,0,1.477.606,8.472,8.472,0,0,0,1.513.206l0,0V6.489h-.044a3.26,3.26,0,0,1-.464-.034m-2.909-3.4h-.5a2.01,2.01,0,0,0,.032.218,3.4,3.4,0,0,0,.82,1.685,4,4,0,0,0,.724.613l.06.039c-.1-.086-.189-.176-.277-.27a3.417,3.417,0,0,1-.82-1.685,2.278,2.278,0,0,1-.035-.6" transform="translate(995 -66)" fill="#f0f"/>
      <path id="Path_177" data-name="Path 177" d="M192.567,3.052H190.6v9.513a2.862,2.862,0,0,1-.113.978,2.117,2.117,0,0,1-.121.276,2.065,2.065,0,0,1-2.793.862l-.253-.151a2.085,2.085,0,0,1-.3-.258l-.206-.124a2.077,2.077,0,0,1,1.832-3.676V8.319h-.121a4.431,4.431,0,0,0-.762.066,4.359,4.359,0,0,0-.889.26,4.43,4.43,0,0,0-1.261.747,4.844,4.844,0,0,0-1.062,1.3A4.483,4.483,0,0,0,184,12.757a4.905,4.905,0,0,0,.266,1.634V14.4a4.5,4.5,0,0,0,1.332,1.9,4.63,4.63,0,0,0,2.436.7,4.515,4.515,0,0,0,1.876-.414,4.708,4.708,0,0,0,1.524-1.138,4.758,4.758,0,0,0,.829-1.37,5.12,5.12,0,0,0,.3-1.568V7.462l.43.28a5.8,5.8,0,0,0,1.477.606,8.471,8.471,0,0,0,1.513.205l0,0V6.456a3.217,3.217,0,0,1-1.046-.343,2.731,2.731,0,0,1-.283-.163,4.148,4.148,0,0,1-.448-.343l-.06-.039a4.046,4.046,0,0,1-.725-.613,3.417,3.417,0,0,1-.82-1.685c-.014-.072-.024-.145-.031-.218" transform="translate(995 -66)" fill="#fff"/>
    </g>
  </g>
</svg>
