<svg id="Logo_-_Twitter" data-name="Logo - Twitter" xmlns="http://www.w3.org/2000/svg" width="19.99" height="20" viewBox="0 0 19.99 20">
  <g id="Twitter_-_PB" data-name="Twitter - PB" transform="translate(-658.043 -20)">
    <path id="Path_184" data-name="Path 184" d="M675.3,20h-14.54a2.667,2.667,0,0,0-2.72,2.73V37.27a2.671,2.671,0,0,0,2.72,2.73H675.3a2.674,2.674,0,0,0,2.73-2.73V22.73A2.674,2.674,0,0,0,675.3,20m-7.28,13.27h3.42a1.715,1.715,0,1,1,0,3.43h-3.4a5.138,5.138,0,0,1-5.14-5.14V24.7a1.724,1.724,0,0,1,1.73-1.72,1.724,1.724,0,0,1,1.71,1.72v1.72h5.1a1.72,1.72,0,0,1,0,3.44h-5.1v1.7a1.71,1.71,0,0,0,1.68,1.71"/>
    <path id="Path_185" data-name="Path 185" d="M673.163,34.99a1.718,1.718,0,0,1-1.72,1.71h-3.4a5.138,5.138,0,0,1-5.14-5.14V24.7a1.724,1.724,0,0,1,1.73-1.72,1.724,1.724,0,0,1,1.71,1.72v1.72h5.1a1.72,1.72,0,0,1,0,3.44h-5.1v1.7a1.71,1.71,0,0,0,1.68,1.71h3.42a1.72,1.72,0,0,1,1.72,1.72" fill="#fff"/>
  </g>
  <g id="Twitter_-_Color" data-name="Twitter - Color" transform="translate(-30 -0.022)">
    <path id="Path_144" data-name="Path 144" d="M47.26.022H32.72A2.667,2.667,0,0,0,30,2.752V17.3a2.664,2.664,0,0,0,2.72,2.72H47.26a2.671,2.671,0,0,0,2.73-2.72V2.752A2.674,2.674,0,0,0,47.26.022m-7.28,13.27H43.4a1.72,1.72,0,0,1,0,3.44H40a5.156,5.156,0,0,1-5.14-5.14V4.732a1.707,1.707,0,0,1,1.73-1.72,1.623,1.623,0,0,1,1.21.5,1.645,1.645,0,0,1,.5,1.22v1.71h5.1a1.725,1.725,0,0,1,1.22,2.94,1.645,1.645,0,0,1-1.22.5H38.3v1.7a1.7,1.7,0,0,0,1.68,1.71" fill="#1d9bf0"/>
    <path id="Path_145" data-name="Path 145" d="M45.12,15.012a1.72,1.72,0,0,1-1.72,1.72H40a5.156,5.156,0,0,1-5.14-5.14V4.732a1.707,1.707,0,0,1,1.73-1.72,1.623,1.623,0,0,1,1.21.5,1.645,1.645,0,0,1,.5,1.22v1.71h5.1a1.725,1.725,0,0,1,1.22,2.94,1.645,1.645,0,0,1-1.22.5H38.3v1.7a1.7,1.7,0,0,0,1.68,1.71H43.4a1.72,1.72,0,0,1,1.72,1.72" fill="#fff"/>
  </g>
</svg>
