<svg xmlns="http://www.w3.org/2000/svg" width="20" height="20" viewBox="0 0 20 20">
  <g id="Logo_-_Vimeo" data-name="Logo - Vimeo" transform="translate(0 0)">
    <g id="Vimeo_-_PB" data-name="Vimeo - PB" transform="translate(-778.033 -20)">
      <path id="Path_201" data-name="Path 201" d="M795.3,20h-14.54a2.674,2.674,0,0,0-2.73,2.73V37.27a2.674,2.674,0,0,0,2.73,2.73H795.3a2.674,2.674,0,0,0,2.73-2.73V22.73A2.674,2.674,0,0,0,795.3,20m-.57,6.29a19.033,19.033,0,0,1-3.05,6.21,10.788,10.788,0,0,1-2.99,2.84,2.479,2.479,0,0,1-1.93.35c-1.16-.49-1.58-2.5-1.91-3.85-.2-.79-.39-1.54-.63-2.23a7.582,7.582,0,0,0-.56-1.53c-.46-.79-1.13-.03-1.83-.13-.3-.05-.35-.36-.55-.56v-.07a26.3,26.3,0,0,1,3.09-2.49,2.068,2.068,0,0,1,1.51-.3,1.971,1.971,0,0,1,1.02,1.3,13.223,13.223,0,0,1,.4,1.97c.18,1.06.12,2.67.91,3.51.87.93,1.53-.37,1.89-1.02a5.044,5.044,0,0,0,.63-1.71c.11-1.3-.51-1.48-1.69-1.39a4.723,4.723,0,0,1,3.2-3.02,2.467,2.467,0,0,1,2.24.54,1.908,1.908,0,0,1,.25,1.58"/>
      <path id="Path_202" data-name="Path 202" d="M794.733,26.29a19.033,19.033,0,0,1-3.05,6.21,10.788,10.788,0,0,1-2.99,2.84,2.479,2.479,0,0,1-1.93.35c-1.16-.49-1.58-2.5-1.91-3.85-.2-.79-.39-1.54-.63-2.23a7.582,7.582,0,0,0-.56-1.53c-.46-.79-1.13-.03-1.83-.13-.3-.05-.35-.36-.55-.56v-.07a26.3,26.3,0,0,1,3.09-2.49,2.068,2.068,0,0,1,1.51-.3,1.971,1.971,0,0,1,1.02,1.3,13.223,13.223,0,0,1,.4,1.97c.18,1.06.12,2.67.91,3.51.87.93,1.53-.37,1.89-1.02a5.044,5.044,0,0,0,.63-1.71c.11-1.3-.51-1.48-1.69-1.39a4.723,4.723,0,0,1,3.2-3.02,2.467,2.467,0,0,1,2.24.54,1.908,1.908,0,0,1,.25,1.58" fill="#fff"/>
    </g>
    <g id="Vimeo_-_Color" data-name="Vimeo - Color" transform="translate(-1144.99 65.978)" opacity="0">
      <path id="Path_158" data-name="Path 158" d="M167.26.022H152.72a2.674,2.674,0,0,0-2.73,2.73V17.3a2.667,2.667,0,0,0,2.73,2.72h14.54a2.671,2.671,0,0,0,2.73-2.72V2.752a2.674,2.674,0,0,0-2.73-2.73m-.57,6.3a19.084,19.084,0,0,1-3.05,6.2,10.645,10.645,0,0,1-2.99,2.84,2.483,2.483,0,0,1-1.93.36c-1.16-.5-1.58-2.51-1.91-3.85-.2-.8-.39-1.55-.63-2.24a7.581,7.581,0,0,0-.56-1.53c-.46-.78-1.13-.03-1.83-.13-.3-.04-.35-.36-.55-.55v-.08a28.517,28.517,0,0,1,3.09-2.49,2.117,2.117,0,0,1,1.51-.3,1.989,1.989,0,0,1,1.02,1.31,13.1,13.1,0,0,1,.4,1.96c.18,1.07.12,2.67.91,3.51.87.93,1.53-.36,1.89-1.02a4.895,4.895,0,0,0,.63-1.71c.11-1.3-.51-1.47-1.69-1.38a4.681,4.681,0,0,1,3.2-3.02,2.463,2.463,0,0,1,2.24.53,1.943,1.943,0,0,1,.25,1.59" transform="translate(995 -66)" fill="#fff"/>
      <path id="Path_159" data-name="Path 159" d="M166.69,6.322a19.084,19.084,0,0,1-3.05,6.2,10.645,10.645,0,0,1-2.99,2.84,2.483,2.483,0,0,1-1.93.36c-1.16-.5-1.58-2.51-1.91-3.85-.2-.8-.39-1.55-.63-2.24a7.581,7.581,0,0,0-.56-1.53c-.46-.78-1.13-.03-1.83-.13-.3-.04-.35-.36-.55-.55v-.08a28.517,28.517,0,0,1,3.09-2.49,2.117,2.117,0,0,1,1.51-.3,1.989,1.989,0,0,1,1.02,1.31,13.1,13.1,0,0,1,.4,1.96c.18,1.07.12,2.67.91,3.51.87.93,1.53-.36,1.89-1.02a4.895,4.895,0,0,0,.63-1.71c.11-1.3-.51-1.47-1.69-1.38a4.681,4.681,0,0,1,3.2-3.02,2.463,2.463,0,0,1,2.24.53,1.943,1.943,0,0,1,.25,1.59" transform="translate(995 -66)" fill="#00adef"/>
    </g>
  </g>
</svg>
