<svg id="Logo_-_Youtube" data-name="Logo - Youtube" xmlns="http://www.w3.org/2000/svg" width="20" height="20" viewBox="0 0 20 20">
  <g id="Youtube_-_PB" data-name="Youtube - PB" transform="translate(-748.033 -20)">
    <path id="Path_180" data-name="Path 180" d="M756.4,27.73l.02,4.62,4-2.32Zm0,0,.02,4.62,4-2.32ZM765.3,20h-14.54a2.674,2.674,0,0,0-2.73,2.73V37.27a2.674,2.674,0,0,0,2.73,2.73H765.3a2.674,2.674,0,0,0,2.73-2.73V22.73A2.674,2.674,0,0,0,765.3,20m-.23,10c0,2.84.03,4.93-2.76,4.93l-8.54.04c-2.79,0-2.77-2.13-2.77-4.97s-.1-4.97,2.69-4.97l8.67.04c2.79,0,2.71,2.09,2.71,4.93m-8.65,2.35,4-2.32-4.02-2.3Z"/>
    <path id="Path_181" data-name="Path 181" d="M762.363,25.07l-8.67-.04c-2.79,0-2.69,2.13-2.69,4.97s-.02,4.97,2.77,4.97l8.54-.04c2.79,0,2.76-2.09,2.76-4.93s.08-4.93-2.71-4.93m-5.94,7.28-.02-4.62,4.02,2.3Z" fill="#fff"/>
  </g>
  <g id="Youtube_-_Color" data-name="Youtube - Color" transform="translate(-119.99 -0.022)">
    <path id="Path_139" data-name="Path 139" d="M137.26.022H122.72a2.674,2.674,0,0,0-2.73,2.73V17.3a2.667,2.667,0,0,0,2.73,2.72h14.54a2.671,2.671,0,0,0,2.73-2.72V2.752a2.674,2.674,0,0,0-2.73-2.73m-.23,10c0,2.85.03,4.94-2.76,4.94l-8.54.03c-2.79,0-2.77-2.13-2.77-4.97s-.1-4.96,2.69-4.96l8.67.03c2.79,0,2.71,2.09,2.71,4.93"/>
    <path id="Path_140" data-name="Path 140" d="M134.32,5.092l-8.67-.03c-2.79,0-2.69,2.12-2.69,4.96s-.02,4.97,2.77,4.97l8.54-.03c2.79,0,2.76-2.09,2.76-4.94s.08-4.93-2.71-4.93m-5.94,7.29-.02-4.62,4.02,2.3Z" fill="#ea3112"/>
    <path id="Path_141" data-name="Path 141" d="M132.38,10.062l-4,2.32-.02-4.62Z" fill="#fff"/>
  </g>
</svg>
