<svg xmlns="http://www.w3.org/2000/svg" width="20" height="20" viewBox="0 0 20 20">
  <g id="Pesquisa" transform="translate(15458 18180)">
    <rect id="Rectangle_542" data-name="Rectangle 542" width="20" height="20" transform="translate(-15458 -18180)" fill="#fff" opacity="0"/>
    <path id="Fill" d="M13.248,13.947h0l-4.3-4.3a5.44,5.44,0,0,1-7,0,5.372,5.372,0,0,1-1.925-3.7,5.472,5.472,0,0,1,1.225-4A5.415,5.415,0,0,1,5.448,0a5.5,5.5,0,0,1,3.5,1.247,5.372,5.372,0,0,1,1.925,3.7,5.472,5.472,0,0,1-1.225,4l4.3,4.3-.7.7Zm-7.8-13A4.482,4.482,0,1,0,8.635,2.26,4.475,4.475,0,0,0,5.448.948Z" transform="translate(-15455 -18177)"/>
  </g>
</svg>
