<svg id="SP_Digital" data-name="SP+Digital" xmlns="http://www.w3.org/2000/svg" xmlns:xlink="http://www.w3.org/1999/xlink" width="140" height="26.675" viewBox="0 0 140 26.675">
  <defs>
    <clipPath id="clip-path">
      <rect id="Rectangle_84" data-name="Rectangle 84" width="140" height="26.675"/>
    </clipPath>
  </defs>
  <g id="Group_218" data-name="Group 218" clip-path="url(#clip-path)">
    <path id="Path_303" data-name="Path 303" d="M39.855,26.625A17.6,17.6,0,0,0,57.528,9.107v0a.5.5,0,0,0-.992,0A16.608,16.608,0,0,1,39.855,25.64a.492.492,0,1,0,0,.984m0-2.766A14.818,14.818,0,0,0,54.737,9.107h0a.5.5,0,0,0-.992,0,13.83,13.83,0,0,1-13.89,13.769.492.492,0,1,0,0,.984m0-2.766A12.04,12.04,0,0,0,51.946,9.107h0a.5.5,0,0,0-.992,0,11.053,11.053,0,0,1-11.1,11,.492.492,0,1,0,0,.983m.992-15.613V8.122h2.6a.984.984,0,1,1,0,1.967h-2.6v2.643a.993.993,0,0,1-1.985,0V10.089h-2.6a.984.984,0,1,1,0-1.967h2.6V5.479a.993.993,0,0,1,1.985,0m-9.8,3.627A8.806,8.806,0,1,0,39.855.377a8.766,8.766,0,0,0-8.806,8.729M15.831,19.986q.542.081,1.057.107c.343.017.66.027.948.027.307,0,.624-.01.949-.027a9.969,9.969,0,0,0,1-.107V13.781q.271.027.582.04c.207.01.429.013.665.013a14.011,14.011,0,0,0,2.7-.267,6.652,6.652,0,0,0,2.479-1.021,5.7,5.7,0,0,0,1.815-2.055,7.122,7.122,0,0,0,.706-3.4,7.2,7.2,0,0,0-.706-3.41A5.5,5.5,0,0,0,26.2,1.626,6.954,6.954,0,0,0,23.677.619,14.557,14.557,0,0,0,20.927.35q-1.3,0-2.575.067T15.833.592V19.986ZM19.787,3.68c.326-.035.574-.057.746-.066s.357-.013.555-.013a5.142,5.142,0,0,1,1.328.174,2.979,2.979,0,0,1,1.151.591,2.9,2.9,0,0,1,.8,1.1,4.192,4.192,0,0,1,.3,1.679,3.923,3.923,0,0,1-.3,1.626,2.832,2.832,0,0,1-.8,1.062,3.107,3.107,0,0,1-1.151.578,5.113,5.113,0,0,1-1.328.173H20.4a3.653,3.653,0,0,1-.61-.054ZM6.152,11.658c.324.126.641.256.948.39a3.66,3.66,0,0,1,.827.5,2.356,2.356,0,0,1,.6.725,2.258,2.258,0,0,1,.231,1.075,2.131,2.131,0,0,1-.976,1.921,4.9,4.9,0,0,1-2.683.631,9.519,9.519,0,0,1-2.141-.229,14.255,14.255,0,0,1-2.14-.685q-.3.86-.516,1.706A11.567,11.567,0,0,0,0,19.314c.452.179.884.331,1.3.456a12.213,12.213,0,0,0,1.26.309,12.332,12.332,0,0,0,1.342.175q.7.053,1.6.053a10.349,10.349,0,0,0,3.211-.456,6.866,6.866,0,0,0,2.344-1.263,5.363,5.363,0,0,0,1.45-1.935,6.072,6.072,0,0,0,.5-2.5,6.557,6.557,0,0,0-.326-2.216,4.483,4.483,0,0,0-.908-1.531,5.007,5.007,0,0,0-1.422-1.062q-.84-.428-1.87-.832L6.856,7.9c-.271-.106-.542-.218-.814-.335a3.276,3.276,0,0,1-.731-.429A1.894,1.894,0,0,1,4.8,6.515a1.926,1.926,0,0,1-.19-.9A2.128,2.128,0,0,1,4.85,4.527,1.7,1.7,0,0,1,5.474,3.9,2.591,2.591,0,0,1,6.328,3.6a5.452,5.452,0,0,1,.935-.082,12.213,12.213,0,0,1,1.354.068,10.058,10.058,0,0,1,1.071.174,6.58,6.58,0,0,1,.894.269c.28.107.555.215.827.323a9.526,9.526,0,0,0,.866-3.063,19.939,19.939,0,0,0-2.534-.7A13.2,13.2,0,0,0,7.153.35,9.579,9.579,0,0,0,4.417.713,5.9,5.9,0,0,0,2.33,1.787,4.826,4.826,0,0,0,.988,3.546,5.831,5.831,0,0,0,.514,5.964,5.828,5.828,0,0,0,.8,7.9a4.14,4.14,0,0,0,.8,1.385,4.878,4.878,0,0,0,1.246.994,11.846,11.846,0,0,0,1.654.765Zm127.019,3.626a4.8,4.8,0,0,0,1.26,3.721,4.791,4.791,0,0,0,3.346,1.14c.343,0,.718-.017,1.125-.053a5.161,5.161,0,0,0,1.044-.188,1.644,1.644,0,0,0,.054-.389v-.389a8.245,8.245,0,0,0-.3-2.15,4.117,4.117,0,0,1-.5.081,4.532,4.532,0,0,1-.473.026,2.637,2.637,0,0,1-.813-.107,1.024,1.024,0,0,1-.527-.389,1.974,1.974,0,0,1-.3-.792,7.564,7.564,0,0,1-.095-1.343V.349a11.624,11.624,0,0,0-1.9-.16,11.8,11.8,0,0,0-1.925.16V15.285Zm-7.038,1.881q-.3.054-.7.121a5,5,0,0,1-.814.067c-.234,0-.51-.014-.826-.039a2.977,2.977,0,0,1-.894-.215,1.767,1.767,0,0,1-.718-.549,1.7,1.7,0,0,1-.3-1.076,1.641,1.641,0,0,1,.773-1.517,4.027,4.027,0,0,1,2.1-.471,6.567,6.567,0,0,1,.678.041q.38.04.7.094Zm0-5.99q-.948-.08-1.734-.081a10.5,10.5,0,0,0-2.169.229,6.352,6.352,0,0,0-1.965.752,4.263,4.263,0,0,0-1.436,1.4,3.957,3.957,0,0,0-.555,2.162,4.787,4.787,0,0,0,.447,2.177A3.793,3.793,0,0,0,120,19.259a5.449,5.449,0,0,0,1.977.806,12.288,12.288,0,0,0,2.534.242,15.8,15.8,0,0,0,3.062-.269,22.372,22.372,0,0,0,2.3-.564V11.416a5.335,5.335,0,0,0-1.584-4.3,6.609,6.609,0,0,0-4.4-1.344,14.826,14.826,0,0,0-4.607.78,5.093,5.093,0,0,0,.189,1.478,7.1,7.1,0,0,0,.57,1.316,9.641,9.641,0,0,1,3.116-.564,8.687,8.687,0,0,1,1.232.08,2.487,2.487,0,0,1,.935.31,1.625,1.625,0,0,1,.6.632,2.214,2.214,0,0,1,.217,1.047Zm-16.968,4.11a4.715,4.715,0,0,0,1.3,3.721,5.546,5.546,0,0,0,3.767,1.14,11.108,11.108,0,0,0,2.575-.3c.017-.125.031-.255.04-.389s.014-.3.014-.5a6.627,6.627,0,0,0-.082-.98,5.3,5.3,0,0,0-.269-1.062c-.2.036-.43.077-.692.121a4.868,4.868,0,0,1-.8.066,3.319,3.319,0,0,1-.894-.106,1.276,1.276,0,0,1-.636-.4,1.982,1.982,0,0,1-.393-.806,5.381,5.381,0,0,1-.136-1.343V9h3.28a7.279,7.279,0,0,0,.108-.779c.017-.233.027-.475.027-.725,0-.232-.009-.457-.027-.672a6.424,6.424,0,0,0-.108-.724h-3.28V2.041h-.623l-5.067,6.421L107.4,9h1.761v6.286Zm-7.93,4.7a11.064,11.064,0,0,0,3.766,0V6.1H99.418a6.246,6.246,0,0,0-.163,1.424,7.077,7.077,0,0,0,.041.74A5.847,5.847,0,0,0,99.418,9h1.816Zm.433-16.118q.542.027.976.027c.307,0,.636-.009.989-.027a8,8,0,0,0,.989-.107,7.59,7.59,0,0,0,.109-.913c.017-.3.027-.6.027-.887,0-.3-.01-.6-.027-.9a7.6,7.6,0,0,0-.109-.9q-.462-.08-1-.121c-.361-.029-.7-.042-1-.042-.289,0-.61.013-.963.041s-.682.067-.987.121a10.525,10.525,0,0,0-.163,1.8,10.23,10.23,0,0,0,.163,1.8,8.073,8.073,0,0,0,1,.108M89.3,17.623a1.832,1.832,0,0,1-1.152-.3.917.917,0,0,1-.284-.7A2.062,2.062,0,0,1,87.977,16a1.263,1.263,0,0,1,.57-.632,8.193,8.193,0,0,0,2.086.241,7.636,7.636,0,0,0,2.479-.376,5.671,5.671,0,0,0,1.857-1.021,4.21,4.21,0,0,0,1.151-1.544,4.824,4.824,0,0,0,.394-1.948,3.761,3.761,0,0,0-.109-.993,3.691,3.691,0,0,0-.243-.646h2.2a7.906,7.906,0,0,0,.108-.886c.017-.285.027-.573.027-.86a6.063,6.063,0,0,0-.04-.712c-.027-.224-.06-.452-.095-.685a5.18,5.18,0,0,0-2.059.336A3.232,3.232,0,0,0,95.025,7.28a6.164,6.164,0,0,0-1.9-1.06A7.206,7.206,0,0,0,90.635,5.8a7.732,7.732,0,0,0-2.493.377,5.7,5.7,0,0,0-1.883,1.034A4.431,4.431,0,0,0,85.08,8.771a4.661,4.661,0,0,0-.407,1.947,4.488,4.488,0,0,0,.515,2.149,4.693,4.693,0,0,0,1.464,1.639,4.894,4.894,0,0,0-1.274,1.235,2.927,2.927,0,0,0-.433,1.666,2.514,2.514,0,0,0,.365,1.411,3.057,3.057,0,0,0,.99.926,5.406,5.406,0,0,0-1.558,1.371,3.226,3.226,0,0,0-.582,1.987,3.464,3.464,0,0,0,.311,1.478,2.683,2.683,0,0,0,1.03,1.128,5.872,5.872,0,0,0,1.856.712,12.894,12.894,0,0,0,2.764.254,12.706,12.706,0,0,0,3.035-.348,8.4,8.4,0,0,0,2.439-.994,5.161,5.161,0,0,0,1.626-1.571,3.73,3.73,0,0,0,.6-2.055,3.727,3.727,0,0,0-1.165-2.942,5.569,5.569,0,0,0-3.632-1.088Zm3.09,2.9a2.492,2.492,0,0,1,.908.135,1.433,1.433,0,0,1,.527.336,1.068,1.068,0,0,1,.258.444,1.863,1.863,0,0,1,.067.51,1.619,1.619,0,0,1-1.043,1.45,6.033,6.033,0,0,1-2.75.537,4.952,4.952,0,0,1-2.073-.361,1.384,1.384,0,0,1-.772-1.384,2.025,2.025,0,0,1,.095-.6,1.474,1.474,0,0,1,.325-.564,1.655,1.655,0,0,1,.622-.416,2.33,2.33,0,0,1,.99-.135Zm-3.415-8.031a2.77,2.77,0,0,1-.514-1.773,2.828,2.828,0,0,1,.514-1.787,2.008,2.008,0,0,1,1.681-.658,1.934,1.934,0,0,1,1.639.658,2.875,2.875,0,0,1,.5,1.787,2.813,2.813,0,0,1-.5,1.773,1.947,1.947,0,0,1-1.639.645,2.026,2.026,0,0,1-1.681-.645M77.609,19.986a11.064,11.064,0,0,0,3.766,0V6.1H75.793a6.246,6.246,0,0,0-.163,1.424,7.077,7.077,0,0,0,.041.74A5.971,5.971,0,0,0,75.792,9h1.815V19.986Zm.432-16.118q.543.027.976.027.459,0,.989-.027a8.018,8.018,0,0,0,.989-.107,7.869,7.869,0,0,0,.109-.913c.017-.3.027-.6.027-.887,0-.3-.01-.6-.027-.9a7.891,7.891,0,0,0-.109-.9q-.462-.08-1-.121C79.631.013,79.3,0,78.99,0c-.289,0-.61.013-.963.041s-.682.067-.988.121a10.59,10.59,0,0,0-.163,1.8,10.292,10.292,0,0,0,.163,1.8,8.1,8.1,0,0,0,1,.108M69.313,6.044A5.326,5.326,0,0,0,68.3,5.87c-.353-.027-.691-.041-1.017-.041a7.338,7.338,0,0,0-2.954.578,6.739,6.739,0,0,0-2.262,1.572,6.86,6.86,0,0,0-1.436,2.351,8.263,8.263,0,0,0-.5,2.887,8.225,8.225,0,0,0,.583,3.278A5.835,5.835,0,0,0,62.3,18.684a6.325,6.325,0,0,0,2.316,1.236,9.664,9.664,0,0,0,2.751.389,21.355,21.355,0,0,0,3.184-.2,19.57,19.57,0,0,0,2.587-.578V.349a8.641,8.641,0,0,0-.976-.107c-.325-.017-.642-.027-.948-.027s-.62.01-.936.027a8.638,8.638,0,0,0-.962.107v5.7Zm0,10.907a4.874,4.874,0,0,1-.841.173,7.846,7.846,0,0,1-.839.041,4.759,4.759,0,0,1-1.41-.2,2.793,2.793,0,0,1-1.125-.658,3.106,3.106,0,0,1-.745-1.223,5.627,5.627,0,0,1-.27-1.867,7.074,7.074,0,0,1,.2-1.706,4.134,4.134,0,0,1,.637-1.424,3.249,3.249,0,0,1,1.1-.967,3.2,3.2,0,0,1,1.557-.363,5.837,5.837,0,0,1,1.735.215v7.979Z" transform="translate(0 0)" fill-rule="evenodd"/>
  </g>
</svg>
